<?xml version="1.0" standalone="no"?>
<!DOCTYPE svg PUBLIC "-//W3C//DTD SVG 20010904//EN"
 "http://www.w3.org/TR/2001/REC-SVG-20010904/DTD/svg10.dtd">
<svg version="1.0" xmlns="http://www.w3.org/2000/svg"
 width="4267.000000pt" height="4267.000000pt" viewBox="0 0 4267.000000 4267.000000"
 preserveAspectRatio="xMidYMid meet">
<rect width="100%" height="100%" fill="#c9aa82" />

<g transform="translate(0.000000,4267.000000) scale(0.100000,-0.100000)"
fill="#01211C" stroke="none">
<path d="M0 21335 l0 -21335 21335 0 21335 0 0 21335 0 21335 -21335 0 -21335
0 0 -21335z m21676 16855 c743 -29 1335 -72 1879 -135 2825 -328 5257 -1220
7620 -2795 2137 -1424 3988 -3431 5292 -5740 395 -699 527 -961 763 -1510 580
-1349 944 -2564 1160 -3872 161 -976 224 -1778 224 -2853 0 -573 -8 -828 -39
-1275 -149 -2131 -666 -4070 -1614 -6059 -424 -888 -1094 -1996 -1720 -2841
-242 -327 -658 -832 -889 -1078 -249 -264 -1102 -1116 -1322 -1319 -703 -649
-1285 -1094 -2222 -1701 -600 -389 -1561 -914 -2158 -1180 -942 -419 -2106
-822 -3075 -1065 -325 -82 -510 -122 -890 -191 -828 -151 -1549 -239 -2355
-288 -279 -17 -1317 -17 -1610 0 -847 49 -1712 157 -2635 328 -1118 207 -2530
669 -3790 1239 -392 177 -1118 560 -1655 873 -327 190 -1236 799 -1620 1086
-663 494 -1525 1279 -2181 1986 -1431 1542 -2566 3357 -3389 5420 -321 805
-537 1496 -729 2330 -156 679 -316 1650 -355 2150 -63 803 -70 2381 -15 3115
27 357 136 1110 238 1638 275 1417 732 2769 1428 4221 333 696 673 1284 1141
1976 926 1369 1984 2553 3169 3547 1414 1186 3040 2142 4828 2836 920 357
1957 661 2787 816 898 169 1869 282 2833 331 116 6 235 12 265 13 137 8 398 6
636 -3z"/>
<path d="M20765 37193 c-154 -8 -745 -56 -965 -78 -2175 -220 -3888 -704
-5691 -1605 -2762 -1382 -5210 -3671 -6686 -6250 -881 -1541 -1492 -3132
-1819 -4745 -96 -473 -190 -1081 -234 -1508 -79 -777 -94 -2031 -35 -2897 212
-3099 1273 -5912 3190 -8460 455 -605 894 -1110 1440 -1655 760 -761 1496
-1364 2415 -1980 573 -384 988 -624 1760 -1018 474 -242 750 -365 1370 -614
720 -289 1703 -582 2635 -787 948 -208 1671 -295 2795 -337 357 -13 1390 -7
1645 10 1364 91 2788 381 4176 850 1058 357 2137 847 2964 1344 529 318 1325
845 1725 1140 1012 749 2445 2237 3237 3362 598 850 1292 2097 1703 3060 624
1462 1004 2958 1149 4520 53 567 70 935 78 1615 16 1552 -115 2722 -458 4070
-254 998 -660 2075 -1213 3215 -530 1092 -1188 2088 -2026 3066 -499 582
-1183 1266 -1775 1774 -730 628 -1504 1185 -2310 1662 -501 297 -1756 911
-2290 1120 -1674 656 -3550 1042 -5455 1123 -210 9 -1173 11 -1325 3z m1336
-2149 c165 -20 275 -45 447 -100 136 -44 142 -47 142 -72 -1 -101 -21 -433
-31 -493 -15 -98 -45 -176 -75 -195 -32 -21 -89 -11 -108 19 -7 12 -16 46 -20
76 -10 99 -103 265 -207 370 -303 307 -793 213 -1065 -204 -65 -100 -133 -241
-163 -339 -44 -142 -50 -432 -15 -656 65 -419 261 -723 557 -864 152 -73 370
-103 517 -72 91 19 198 69 266 124 48 39 66 61 169 199 57 78 120 116 153 95
40 -26 29 -154 -27 -322 -60 -179 -147 -298 -260 -359 -32 -17 -105 -46 -162
-65 -470 -157 -888 -89 -1268 204 -208 161 -343 357 -434 630 -141 424 -123
895 47 1245 231 473 575 752 981 795 107 12 404 3 556 -16z m-2425 -184 c28
-11 26 -1 55 -344 l22 -269 -22 -19 c-15 -11 -38 -18 -65 -17 -92 2 -115 23
-147 139 -39 142 -88 183 -214 183 -132 -1 -340 -56 -387 -103 -26 -26 -28
-35 -28 -102 0 -117 78 -616 211 -1348 58 -320 98 -501 130 -585 38 -101 149
-199 264 -232 34 -10 51 -46 41 -87 -5 -21 -20 -33 -59 -51 -57 -26 -138 -43
-619 -131 -348 -63 -342 -63 -354 3 -13 71 27 145 87 158 82 18 118 89 119
230 0 134 -29 327 -149 975 -55 300 -116 637 -136 750 -57 325 -54 320 -179
320 -150 0 -336 -48 -394 -103 -36 -33 -47 -61 -73 -175 -12 -56 -31 -116 -41
-132 -16 -27 -23 -30 -66 -30 -64 0 -89 26 -102 106 -10 65 -33 524 -26 531 2
2 64 13 137 23 360 51 1489 261 1619 301 83 26 316 31 376 9z m4332 -50 c526
-86 590 -111 562 -210 -15 -52 -27 -60 -91 -60 -71 0 -104 -12 -147 -53 -64
-61 -77 -99 -177 -542 -78 -345 -277 -1271 -301 -1404 -19 -105 -15 -200 9
-248 49 -93 530 -186 797 -154 123 15 161 37 225 126 69 96 154 182 189 191
25 6 33 2 53 -20 13 -15 23 -38 23 -50 0 -112 -195 -612 -262 -672 -15 -15
-35 -12 -220 26 -627 129 -1609 340 -1627 350 -27 14 -37 55 -20 87 17 31 77
66 150 87 31 9 67 25 81 35 60 48 97 188 309 1165 155 712 189 902 189 1039 0
79 -2 90 -23 111 -13 13 -48 31 -79 40 -30 8 -63 25 -73 36 -18 20 -18 22 0
95 l19 75 54 0 c29 0 191 -23 360 -50z m-7472 -704 c19 -19 34 -44 34 -56 0
-13 -35 -57 -96 -120 l-96 -99 -74 -373 c-79 -396 -114 -611 -114 -693 l0 -51
83 -60 c45 -34 152 -110 237 -169 85 -60 261 -184 391 -276 130 -92 268 -188
308 -214 96 -62 259 -138 343 -160 76 -19 143 -70 154 -117 7 -31 14 -27 -126
-73 -47 -15 -200 -75 -340 -133 -287 -118 -401 -159 -470 -168 -43 -6 -49 -4
-69 22 -51 65 -36 111 48 154 111 56 109 82 -18 202 -170 162 -597 488 -638
488 -8 0 -21 -16 -29 -35 -45 -108 -164 -743 -164 -877 0 -54 1 -56 31 -67 18
-6 76 -11 130 -11 93 0 98 -1 118 -26 28 -35 28 -102 2 -131 -11 -12 -41 -29
-68 -39 -26 -9 -134 -55 -239 -100 -332 -144 -387 -163 -439 -150 -30 8 -49
40 -41 71 3 13 33 56 67 96 121 145 130 173 285 929 l103 505 -32 28 c-18 15
-167 124 -332 241 -165 117 -350 248 -410 292 -109 78 -247 157 -308 175 -18
6 -71 14 -119 19 -106 10 -138 24 -160 70 -33 68 -30 79 36 101 32 11 174 73
315 138 354 164 510 221 564 207 15 -3 33 -19 42 -36 25 -49 -1 -90 -82 -126
-35 -15 -57 -32 -65 -50 -12 -26 -10 -29 69 -103 143 -134 518 -401 563 -401
48 0 124 489 100 641 -13 90 -34 128 -81 152 -30 14 -44 15 -89 7 -30 -6 -62
-8 -72 -4 -23 7 -48 55 -48 92 0 39 30 64 115 95 39 15 142 53 230 86 88 33
203 78 255 100 120 51 151 52 196 7z m10996 -351 c119 -46 167 -74 184 -107
12 -23 11 -53 -6 -220 -57 -547 -200 -2188 -200 -2286 0 -128 7 -148 76 -225
49 -55 79 -124 70 -161 -9 -35 -59 -60 -103 -51 -83 15 -635 252 -845 362 -76
40 -83 58 -50 122 22 45 48 51 157 38 79 -10 90 -9 123 8 85 46 108 129 97
360 -3 88 -10 163 -14 167 -3 4 -142 59 -306 122 -165 63 -338 129 -384 146
l-84 33 -20 -24 c-10 -13 -67 -78 -126 -143 -58 -66 -123 -139 -145 -163 -21
-24 -37 -45 -35 -47 60 -54 186 -155 222 -178 40 -27 47 -36 47 -63 0 -45 -39
-99 -73 -103 -51 -6 -528 168 -711 260 l-78 39 6 37 c3 20 6 47 6 59 0 33 34
46 142 54 154 10 174 23 428 278 293 294 541 574 1060 1196 346 416 441 525
458 525 7 0 54 -16 104 -35z m-14025 -1146 c42 -15 122 -97 255 -262 135 -167
181 -237 173 -259 -3 -8 -32 -27 -64 -42 -76 -37 -100 -31 -187 45 -38 32
-100 76 -139 97 -66 35 -75 37 -160 37 -83 0 -96 -3 -167 -37 -218 -104 -341
-231 -341 -353 0 -60 8 -75 83 -175 31 -41 101 -140 155 -220 54 -80 121 -174
148 -208 47 -59 52 -63 81 -58 66 13 310 202 322 249 6 27 -16 83 -62 154 -19
29 -34 62 -34 72 0 20 33 38 89 47 64 10 101 -18 229 -177 34 -42 125 -143
202 -225 77 -82 143 -159 147 -171 7 -30 -5 -44 -63 -72 -61 -31 -121 -25
-189 17 -136 84 -245 61 -432 -88 -48 -39 -89 -75 -91 -80 -4 -11 281 -439
375 -562 41 -53 92 -113 115 -133 35 -32 45 -36 75 -32 66 11 249 134 428 287
237 204 267 277 210 520 -33 141 -33 194 1 225 37 34 82 42 104 19 29 -29 135
-230 244 -457 l98 -206 -67 -63 c-80 -75 -152 -128 -436 -324 -365 -252 -900
-599 -1006 -653 -38 -19 -43 -19 -57 -5 -23 23 -21 120 3 164 59 107 56 93 34
153 -31 85 -115 219 -498 792 -523 784 -644 949 -713 973 -23 8 -40 5 -83 -14
-64 -28 -87 -29 -117 -8 -25 18 -62 84 -62 112 0 33 364 304 842 626 300 201
400 264 458 287 54 22 60 22 97 8z m16504 -58 c72 -27 121 -63 264 -191 121
-108 319 -317 369 -389 l29 -41 -23 -62 c-28 -81 -117 -249 -187 -358 -88
-136 -103 -146 -162 -115 -47 24 -64 82 -60 205 2 58 3 166 4 240 0 131 -1
137 -32 202 -88 186 -296 263 -470 174 -68 -34 -146 -122 -173 -194 -66 -175
-24 -339 159 -632 95 -152 194 -353 227 -465 49 -169 44 -408 -13 -590 -94
-298 -299 -491 -594 -560 -96 -22 -300 -22 -384 0 -181 47 -367 187 -732 549
-168 168 -199 210 -177 242 66 92 120 183 200 340 160 314 182 343 267 344 49
0 77 -28 77 -76 0 -20 -14 -96 -32 -168 -76 -316 -16 -600 166 -781 100 -100
145 -120 271 -120 92 0 106 3 168 32 156 74 277 254 277 413 0 72 -27 137
-204 494 -232 466 -262 556 -253 740 11 231 94 407 269 571 124 117 240 180
387 211 99 20 290 13 362 -15z m-18395 -1349 c38 -25 44 -105 14 -184 -31 -83
-27 -124 25 -225 77 -150 255 -375 729 -923 255 -294 453 -502 512 -536 34
-20 52 -24 105 -22 105 5 158 -45 124 -115 -18 -39 -272 -293 -325 -326 -50
-30 -93 -27 -165 13 -116 64 -337 124 -785 215 -510 103 -980 173 -1174 175
-84 1 -130 -3 -133 -10 -10 -28 632 -668 922 -919 148 -127 293 -193 379 -171
14 3 39 21 55 39 26 27 38 32 75 32 54 0 96 -33 96 -76 0 -39 -71 -130 -207
-265 -214 -212 -319 -292 -368 -280 -36 9 -55 62 -53 147 2 65 -2 81 -29 134
-81 156 -288 395 -882 1019 -279 292 -384 392 -452 427 -38 19 -51 20 -162 14
-113 -7 -124 -6 -146 13 -23 18 -24 22 -13 60 7 22 32 67 56 99 60 82 315 353
331 353 29 0 592 -85 1070 -161 849 -135 937 -149 1028 -156 53 -4 87 -2 87 4
0 41 -712 844 -847 955 -97 81 -107 83 -275 80 -119 -2 -153 0 -178 13 -42 22
-41 63 6 126 52 72 321 303 475 409 74 51 85 55 105 42z m20289 -326 c99 -34
205 -95 311 -180 104 -84 186 -172 341 -369 l124 -157 -112 -123 c-61 -67
-149 -172 -195 -233 -46 -62 -91 -115 -100 -118 -38 -14 -98 0 -116 28 -12 18
-9 99 7 183 48 249 19 446 -82 546 -59 59 -114 81 -208 81 -183 0 -317 -86
-357 -229 -17 -61 -12 -203 11 -300 11 -47 50 -163 85 -259 185 -496 209 -722
101 -937 -100 -196 -332 -395 -520 -445 -93 -25 -371 -31 -460 -10 -166 39
-349 167 -513 361 -81 95 -374 502 -388 538 -3 8 8 30 24 48 43 50 155 204
266 367 109 159 185 257 217 280 19 13 24 13 47 -5 43 -31 92 -111 92 -149 0
-20 -18 -68 -46 -121 -61 -118 -78 -217 -71 -408 8 -213 42 -319 141 -447 54
-68 121 -113 192 -129 103 -23 238 31 363 146 152 141 157 258 30 665 -126
405 -152 594 -108 779 15 60 78 197 120 258 48 70 145 169 216 219 70 51 206
117 284 139 79 22 204 14 304 -19z m-9920 -656 c334 -11 750 -35 895 -51 127
-14 711 -111 930 -155 431 -86 995 -245 1435 -404 1240 -448 2383 -1110 3344
-1936 365 -314 606 -553 1035 -1029 l217 -240 -6 -945 c-3 -520 -10 -2083 -16
-3475 -15 -3844 -22 -4152 -114 -4671 -264 -1482 -821 -2722 -1739 -3864 -381
-474 -893 -1003 -1346 -1391 -298 -255 -815 -625 -1285 -919 -1113 -697 -2306
-1191 -3790 -1570 l-130 -33 -350 102 c-471 138 -657 197 -935 298 -1004 363
-1994 850 -2861 1406 -463 297 -840 582 -1229 927 -205 183 -655 622 -847 829
-694 745 -1315 1813 -1683 2896 -201 592 -324 1149 -364 1645 -50 607 -56
1174 -56 5189 l0 3583 207 242 c730 849 1728 1663 2688 2191 904 497 2065 923
3185 1169 467 103 1022 189 1345 209 129 8 1203 6 1470 -3z"/>
<path d="M27053 33014 c-43 -43 -162 -182 -264 -309 -103 -126 -218 -268 -257
-315 -51 -62 -67 -87 -58 -92 25 -14 482 -177 529 -189 26 -6 53 -9 61 -6 26
10 51 190 82 580 17 225 16 379 -3 398 -10 10 -29 -5 -90 -67z"/>
<path d="M21830 24425 l0 -5005 3585 0 3585 0 0 3333 0 3333 -208 235 c-409
460 -756 781 -1233 1139 -417 312 -845 574 -1389 849 -1054 532 -2191 890
-3280 1030 -333 44 -869 91 -1022 91 l-38 0 0 -5005z m5590 1640 l0 -185
-2290 0 -2290 0 0 185 0 185 2290 0 2290 0 0 -185z m-822 -582 l752 -6 0 -162
0 -162 -757 -7 c-417 -3 -1405 -9 -2195 -12 l-1438 -7 0 104 c0 114 13 216 30
233 7 7 80 13 178 16 256 9 2585 11 3430 3z m-2390 -919 c-5 -136 -12 -144
-129 -144 l-79 0 2 -1272 3 -1273 85 -3 c46 -2 90 -8 97 -14 14 -12 17 -87 7
-187 l-7 -61 -497 0 -498 0 -6 53 c-11 87 -9 176 3 191 6 7 36 16 67 20 73 8
108 27 128 70 24 52 35 547 36 1604 l0 872 -74 0 c-108 0 -121 14 -145 148
l-18 102 514 0 515 0 -4 -106z m1420 82 c7 -36 -10 -185 -23 -203 -11 -14 -30
-19 -99 -22 l-86 -3 0 -1274 0 -1274 89 0 c66 0 92 -4 101 -15 9 -11 11 -44 5
-130 l-7 -115 -493 0 c-288 0 -496 4 -499 9 -10 15 -12 228 -3 238 5 4 48 10
95 13 l87 5 2 265 c1 146 7 636 12 1090 5 454 5 893 1 977 -8 178 -16 197 -80
206 -46 6 -77 29 -92 67 -7 19 -38 170 -38 188 0 1 231 1 512 0 496 -3 513 -4
516 -22z m1445 -55 c7 -102 -2 -142 -33 -158 -15 -7 -64 -13 -118 -13 l-92 0
2 -1272 3 -1273 112 -3 c138 -3 138 -3 128 -136 -3 -50 -9 -99 -11 -109 -5
-16 -35 -17 -502 -15 l-497 3 -9 112 c-11 144 -12 143 105 143 l89 0 0 1274 0
1274 -86 3 c-111 5 -114 9 -114 146 l0 103 509 0 508 0 6 -79z m-700 -3297
l957 -7 0 -181 0 -181 -1172 2 c-645 1 -1647 5 -2225 9 l-1053 6 0 185 0 186
1268 -7 c697 -3 1698 -9 2225 -12z"/>
<path d="M20708 29409 c-631 -32 -1579 -217 -2431 -474 -518 -156 -824 -280
-1417 -576 -525 -262 -734 -380 -1090 -614 -350 -230 -422 -283 -843 -632
-188 -156 -380 -339 -693 -658 l-314 -319 0 -3358 0 -3358 3540 0 3540 0 0
5000 0 5000 -72 -2 c-40 0 -139 -4 -220 -9z m-2367 -2539 c80 -5 158 -14 173
-20 55 -21 60 -52 64 -402 l3 -318 -590 0 -591 0 5 -37 c2 -21 9 -119 15 -218
15 -252 29 -399 47 -478 16 -74 43 -116 143 -224 65 -70 86 -119 96 -229 8
-84 -9 -215 -37 -290 -56 -150 -228 -254 -419 -254 -172 0 -293 64 -391 206
-125 182 -97 363 99 640 l79 111 7 591 c7 578 14 762 36 841 10 36 14 40 58
50 148 31 898 51 1203 31z m-1561 -2636 c0 -9 -74 -91 -163 -183 -204 -207
-287 -317 -381 -506 -144 -291 -234 -654 -272 -1096 l-7 -77 -36 -6 c-135 -22
-702 16 -735 50 -38 38 68 422 189 680 144 308 458 653 800 879 95 63 363 200
480 247 81 32 125 36 125 12z m1090 -36 c616 -261 937 -550 1209 -1088 161
-316 230 -533 231 -714 l0 -29 -277 6 c-307 7 -494 22 -504 39 -11 18 -19 82
-29 248 -17 291 -84 534 -221 810 -117 234 -213 372 -409 584 -85 92 -150 175
-150 191 0 12 49 -4 150 -47z m-758 -148 c-18 -181 -23 -352 -29 -967 l-6
-723 -21 0 c-59 0 -729 40 -733 44 -9 9 19 339 38 456 74 445 290 877 550
1100 134 115 207 148 201 90z m380 -26 c153 -136 284 -309 397 -524 179 -343
280 -727 281 -1072 l0 -68 -395 0 -395 0 0 643 c0 580 10 975 26 1050 3 15 10
27 14 27 5 0 38 -25 72 -56z m2148 -2031 c0 -26 -5 -109 -12 -185 l-11 -138
-2366 2 -2366 3 -12 140 c-6 77 -12 159 -12 183 l-1 42 2390 0 2390 0 0 -47z
m-3303 -626 c139 -7 253 -15 255 -17 2 -3 2 -264 0 -581 l-2 -576 -108 -6
c-59 -4 -182 -10 -274 -13 l-168 -7 0 606 0 607 23 -1 c12 0 135 -6 274 -12z
m970 -3 c105 -4 197 -10 203 -14 7 -4 14 -194 23 -593 l12 -587 -292 0 -293 0
0 606 0 607 78 -6 c42 -4 163 -9 269 -13z m-1637 -595 l0 -602 -162 7 c-90 3
-206 9 -259 13 l-96 6 -7 146 c-9 186 -9 961 -1 983 6 16 38 32 80 41 11 3
116 5 233 6 l212 1 0 -601z m2790 1 l0 -600 -290 0 -290 0 0 600 0 600 290 0
290 0 0 -600z m910 0 l0 -600 -265 0 -265 0 0 600 0 600 265 0 265 0 0 -600z"/>
<path d="M13923 18254 c4 -252 11 -383 26 -509 102 -840 354 -1661 757 -2467
129 -258 254 -479 268 -471 149 89 4680 3170 5391 3667 l130 91 -95 6 c-52 4
-1532 10 -3289 14 l-3194 8 6 -339z"/>
<path d="M23240 18579 c-558 -6 -741 -16 -763 -38 -18 -18 80 -85 793 -538
673 -429 2329 -1502 3505 -2273 858 -562 1184 -770 1209 -770 56 0 474 943
641 1445 161 482 291 1149 340 1736 20 245 31 439 26 445 -7 7 -5103 1 -5751
-7z"/>
<path d="M21324 18132 c-127 -77 -318 -207 -1004 -682 -355 -245 -739 -511
-855 -590 -115 -79 -286 -198 -380 -265 -93 -67 -415 -287 -715 -490 -1624
-1098 -2573 -1744 -2776 -1891 -56 -41 -104 -83 -107 -94 -8 -30 10 -76 56
-143 116 -174 642 -735 937 -1001 1031 -931 2473 -1761 4002 -2305 242 -86
903 -295 928 -293 19 1 446 125 680 197 231 71 419 136 686 235 1207 451 2003
870 2881 1517 342 252 1057 939 1482 1422 113 129 401 496 401 512 0 4 -48 37
-107 75 -221 140 -1247 803 -1793 1159 -916 597 -2112 1368 -3585 2313 -176
113 -365 235 -420 272 -181 121 -193 123 -311 52z m270 -2146 c548 -191 3713
-1369 3832 -1427 86 -41 88 -53 17 -118 -79 -72 -398 -311 -620 -464 -192
-132 -589 -380 -608 -380 -6 0 -100 60 -210 133 -570 381 -1006 584 -1528 710
-499 120 -950 153 -1437 104 -713 -72 -1390 -310 -1839 -646 -101 -76 -224
-193 -362 -347 l-85 -93 -99 65 c-124 81 -254 151 -263 143 -3 -4 -10 -165
-14 -359 -10 -431 -16 -488 -54 -528 -36 -38 -114 -63 -190 -62 -102 1 -164
50 -164 127 0 58 21 83 105 121 40 18 77 41 83 52 6 12 -2 106 -24 283 -35
287 -71 551 -76 555 -2 1 -59 36 -128 77 -165 99 -266 149 -381 189 -142 49
-188 106 -193 238 l-1 44 585 245 c322 134 1107 464 1745 732 1318 555 1629
683 1664 689 2 1 112 -37 245 -83z m216 -1676 c337 -15 459 -37 740 -130 298
-98 635 -250 805 -361 102 -68 180 -144 188 -186 36 -179 64 -1068 36 -1165
-11 -42 -38 -55 -79 -40 -14 5 -79 46 -146 90 -293 194 -735 415 -990 495
-200 63 -546 101 -934 101 -445 1 -748 -45 -1092 -168 -321 -114 -517 -225
-893 -504 -104 -78 -193 -142 -196 -142 -14 0 -16 132 -8 465 9 352 24 673 35
753 4 29 19 60 44 91 178 225 960 574 1491 665 233 40 603 53 999 36z"/>
</g>
</svg>
