<svg width="111" height="130" viewBox="0 0 111 130" fill="none" xmlns="http://www.w3.org/2000/svg">
<g clip-path="url(#clip0_75_14)">
<mask id="mask0_75_14" style="mask-type:luminance" maskUnits="userSpaceOnUse" x="0" y="0" width="111" height="130">
<path d="M110.153 0H0.66423V129.434H110.153V0Z" fill="white"/>
</mask>
<g mask="url(#mask0_75_14)">
<path d="M110.152 90.9383C109.729 91.6744 109.106 91.6951 108.443 91.6951C96.1489 91.6813 83.8543 91.6882 71.5543 91.6882C70.678 91.6882 70.4283 92.1695 70.8056 93.1322C75.2068 104.372 79.6134 115.605 84.0145 126.844C84.8148 128.885 84.5462 129.399 82.6941 129.399C81.3395 129.399 79.9849 129.33 78.6303 129.42C77.7387 129.483 77.2758 128.976 76.8412 128.143C71.8574 118.666 66.8504 109.211 61.8491 99.7483C61.6777 99.4287 61.5063 99.1096 61.1063 98.8042C60.9975 100.519 60.8719 102.241 60.7747 103.955C60.4203 110.086 60.0545 116.216 59.7401 122.346C59.6771 123.554 59.2942 124.047 58.2996 124.019C56.3394 123.97 54.3789 123.984 52.4183 124.019C51.5325 124.033 51.1438 123.595 51.0867 122.491C50.6922 115.153 50.2634 107.815 49.8405 100.477C49.8063 99.9218 49.8806 99.3527 49.6349 98.8042C49.2062 98.9777 49.1148 99.4846 48.9205 99.8522C43.9476 109.239 38.9809 118.618 34.0425 128.025C33.5281 129.01 32.9794 129.496 31.9792 129.427C30.596 129.323 29.2013 129.406 27.8124 129.399C26.4235 129.385 26.0749 128.733 26.6693 127.213C30.1501 118.312 33.6367 109.419 37.1234 100.526C38.1006 98.0264 39.0781 95.5344 40.0553 93.0351C40.4022 92.1416 40.1792 91.6951 39.3867 91.6951C27.1608 91.6951 14.9408 91.6951 2.71502 91.6951C0.743117 91.6951 0.674529 91.6117 0.674529 89.2168C0.674529 88.0503 0.663098 86.8773 0.674529 85.7108C0.708823 82.538 2.43495 80.0112 5.01844 79.6363C5.96723 79.4975 6.02437 79.0599 6.02437 78.1158C6.00722 53.9145 6.01294 29.7204 5.9958 5.51919C5.9958 3.76972 6.34445 2.27016 7.47616 1.13161C8.27064 0.31935 9.20229 0 10.2482 0C15.1294 0.0208272 20.0106 0.00694239 24.8975 0.00694239C50.0236 0.00694239 75.1496 0.00694239 100.276 0.00694239C102.63 0.00694239 104.208 1.31211 104.694 3.73501C104.825 4.39453 104.819 5.10961 104.819 5.7969C104.825 29.8662 104.831 53.9355 104.808 78.0046C104.808 79.0668 104.922 79.525 105.94 79.6638C107.854 79.9348 109.152 81.3788 109.872 83.5585C109.946 83.781 109.889 84.1001 110.164 84.1903V90.9452L110.152 90.9383ZM56 10C42.3912 10 30.109 10.0416 16.5 10C15.4598 10 14.9943 9.63237 15 11C15.7396 33.5932 16.5 55.5 14 78C14 79.2288 13.9426 79.0417 15 79C17.292 78.9098 16.4771 79.3326 16.5 76.5C16.5114 75.4378 17.1998 74.5069 18 74.5C22.4099 73.8692 28 74.5 32.5 74.5C33.4031 74.5 34.4771 75.9103 34.5 77C34.5057 77.3891 34.54 77.6182 34.5 78C34.3514 79.2078 34.5283 78.5 35.5 78.5C48.0058 78.4587 59.4943 78.5 72 78.5C72.1772 78.5 72.1599 78.2948 72.3316 78.3158C72.8801 78.3781 72.3488 78.7962 72.3316 78.1158C72.3029 76.9493 72.4713 76.6661 72.5 75.5C72.5284 74.1947 73.4595 72.0069 74.5 72C80.1986 71.9931 86.8014 72.5206 92.5 72.5C93.523 72.5 94.4429 73.403 94.5 74.5C94.5226 74.9304 94 75.5696 94 76C94.5 77 92.9051 78.0256 95.5 78.1158C96.546 78.1506 95.8982 76.8728 95.8924 75.6303C95.864 52.9494 95.4658 35.1808 95.5 12.5C95.5 11.1532 95.5 10 94.5 9.5C81.8227 11.1315 70.5749 10 57 10H56ZM55.522 2.36041C40.627 2.36041 25.732 2.36041 10.837 2.36041C8.56783 2.36041 7.93912 3.13796 7.93912 5.9288C7.93912 29.5607 7.93912 53.1925 7.93912 76.8243C7.93912 79.5388 7.93912 79.4765 10.1396 79.5598C11.1113 79.5946 11.3742 79.2751 11.3685 78.0742C11.3399 54.7477 11.3457 31.4213 11.3457 8.08788C11.3457 5.97046 11.4771 5.81078 13.2318 5.81078C41.3473 5.81078 69.4565 5.81078 97.572 5.81078C99.3152 5.81078 99.4695 5.99821 99.4695 8.08093C99.4695 31.0186 99.4695 53.9562 99.4695 76.8939C99.4695 79.525 99.4695 79.4486 101.636 79.5529C102.693 79.6084 102.905 79.2128 102.905 77.984C102.871 53.963 102.882 29.9425 102.882 5.92185C102.882 3.13796 102.247 2.35347 99.9896 2.35347C85.1689 2.35347 70.3427 2.35347 55.522 2.35347V2.36041ZM55.4532 81.8646C39.2037 81.8646 22.9541 81.8646 6.71025 81.8646C6.35588 81.8646 5.9958 81.8508 5.64143 81.8787C3.88673 82.0106 2.66358 83.531 2.60642 85.6553C2.58927 86.4328 2.65786 87.2175 2.58927 87.988C2.49211 89.057 2.79504 89.3624 3.69239 89.3624C10.534 89.3139 17.3757 89.3555 24.2173 89.3345C35.723 89.3001 47.2285 89.2168 58.7283 89.1958C62.9693 89.1889 67.2048 89.3208 71.4458 89.3276C82.9572 89.3487 94.4628 89.3276 105.974 89.3276C107.468 89.3276 108.216 88.437 108.22 86.6548C108.22 83.1767 107.146 81.8577 104.305 81.8577C88.0211 81.8577 71.7373 81.8577 55.4532 81.8577V81.8646ZM60.1746 91.7161C60.1229 92.3337 60.4145 92.6322 60.5975 92.9793C61.4721 94.6595 62.3637 96.3324 63.2437 98.0058C68.2049 107.399 73.1662 116.792 78.1274 126.178C78.3275 126.56 78.4473 127.06 78.9619 127.046C79.9049 127.025 80.8424 127.046 81.7624 127.046C81.7853 126.844 81.8083 126.789 81.7912 126.761C77.3042 115.285 72.8117 103.803 68.325 92.3269C68.1991 92.0004 68.0848 91.7161 67.7249 91.7161C65.2101 91.723 62.6952 91.7161 60.1746 91.7161ZM50.8981 91.7161C48.3029 91.7161 45.9653 91.7436 43.6277 91.6951C42.9646 91.6813 42.6331 91.9313 42.3416 92.6739C38.232 103.22 34.0825 113.751 29.9615 124.297C29.6186 125.164 29.1842 126.004 29.0127 127.053C29.7272 127.053 30.3731 126.983 31.0018 127.067C31.8877 127.192 32.3907 126.796 32.8765 125.866C36.9975 117.979 41.17 110.127 45.3252 102.268C47.1314 98.8528 48.9318 95.43 50.8923 91.7161H50.8981ZM55.4478 121.61C55.8765 121.61 56.3107 121.554 56.7281 121.624C57.6081 121.763 57.951 121.318 57.9397 120.27C57.9284 119.36 57.9739 118.458 58.0255 117.549C58.4255 110.613 58.7855 103.678 59.2771 96.7559C59.4202 94.7845 58.5969 93.4376 57.7395 92.1186C57.1623 91.2368 56.1334 91.8965 55.3218 91.7436C55.2189 91.723 55.1046 91.7646 55.0019 91.7436C53.6645 91.4313 52.9384 92.174 52.2069 93.535C51.4066 95.0207 51.5554 96.4922 51.641 98.0058C52.0238 104.851 52.4697 111.696 52.8354 118.541C53.0014 121.61 52.9384 121.61 55.4478 121.61ZM84 76C82.0052 76 79.9948 76 78 76C76.0052 76 76.5742 75.5145 76.5 78C76.4658 79.194 76.0971 79.0142 77 79C81.1325 78.9446 85.3675 79 89.5 79C91.8489 79 91.0287 79.8047 91 77C90.9887 76.1251 91.1744 75.9931 90.5 76C88.1853 76.0348 86.3147 76 84 76ZM25 78C23.1138 78 21.8862 78.576 20 78.5C18.9369 78.4583 19.6105 78.4622 19.6048 79.1146C19.6048 79.7812 18.9483 80.0138 20 80C23.7037 79.9373 27.018 79.795 30.7217 79.8508C31.7791 79.8646 30.9886 79.6666 31 79C31.0057 78.3197 31.7677 77.9515 30.7217 78C28.9098 78.0833 26.8176 78 25 78Z" fill="#FDCB58"/>
<path d="M55.4717 8.31681C69.0466 8.31681 82.6212 8.33068 96.1958 8.28906C97.2534 8.28906 97.5675 8.56674 97.5675 9.9205C97.5275 32.6013 97.5333 55.2751 97.5675 77.956C97.5675 79.1917 97.3218 79.5804 96.2817 79.5456C93.6868 79.4554 93.6868 79.525 93.6868 76.3243C93.6868 75.894 93.7039 75.4567 93.6868 75.0263C93.6297 73.9225 93.2523 73.277 92.2292 73.2838C86.5307 73.3045 80.8266 73.2907 75.1281 73.2976C74.0876 73.2976 73.6647 73.8113 73.6363 75.1165C73.6075 76.2827 73.6075 77.4561 73.6363 78.6226C73.6534 79.2956 73.4303 79.5804 72.8818 79.525C72.7046 79.5039 72.5274 79.525 72.3501 79.525C59.8444 79.525 47.3384 79.5112 34.8326 79.5529C33.861 79.5529 33.4437 79.2613 33.598 78.0462C33.6438 77.6644 33.6094 77.2688 33.598 76.8797C33.5752 75.79 33.1236 75.1513 32.2205 75.1444C27.5166 75.1234 22.8126 75.1234 18.1086 75.1444C17.3084 75.1444 16.914 75.6371 16.9083 76.6993C16.8855 79.5319 16.8512 79.4623 14.5592 79.5529C13.5075 79.5946 13.2789 79.1848 13.2789 77.956C13.3075 55.2751 13.3132 32.6013 13.2789 9.9205C13.2789 8.55287 13.6161 8.29598 14.6563 8.30294C28.2653 8.3446 41.88 8.33068 55.4888 8.33068L55.4717 8.31681ZM67.0861 44.7368C67.0173 43.9521 66.7888 43.3203 66.5315 42.7026C64.0625 36.7598 61.5932 30.8171 59.13 24.8744C58.4724 23.2916 57.8497 21.6879 57.1524 20.1328C56.1978 17.9876 54.2714 17.8696 53.0941 19.862C52.9114 20.1744 52.7684 20.5354 52.6253 20.8756C50.2936 26.4156 47.9614 31.9626 45.6293 37.5026C44.8064 39.4673 43.9377 41.4043 43.1603 43.3967C42.5486 44.9657 43.0344 46.6734 44.1492 47.2846C45.2523 47.8954 46.6982 47.2429 47.3271 45.8333C47.6816 45.0353 48.0415 44.2368 48.3159 43.3899C48.5787 42.5914 48.9616 42.3067 49.6818 42.3208C53.2771 42.3693 56.878 42.3552 60.473 42.3208C61.0847 42.3208 61.4447 42.5081 61.702 43.2232C62.0736 44.2506 62.5019 45.2505 62.9707 46.2152C63.5082 47.3263 64.3311 47.6733 65.3486 47.2984C66.383 46.9165 67.109 45.7989 67.0861 44.7295V44.7368ZM25.7619 62.3564H25.7676C25.7676 63.7866 25.739 65.2165 25.779 66.6398C25.7962 67.3481 25.9219 68.0701 26.7164 68.0701C28.2825 68.0701 29.86 68.1534 31.4146 68.0074C32.5406 67.9034 33.438 67.1604 33.7752 65.7374C34.0953 64.3768 33.9238 63.1479 32.9121 62.2868C32.5692 61.9956 32.5921 61.801 32.7635 61.3638C33.678 58.9964 32.6207 56.8858 30.4487 56.7402C29.3456 56.6637 28.2368 56.7608 27.1336 56.7122C26.1563 56.6637 25.7676 57.247 25.7619 58.3435C25.7561 59.6836 25.7619 61.0236 25.7619 62.3701V62.3564ZM76.3968 62.398C76.3968 63.7797 76.4197 65.1611 76.3913 66.5428C76.3684 67.6535 76.7855 68.1117 77.6771 68.0838C78.7402 68.049 79.8091 68.1117 80.8721 68.0559C83.2043 67.9382 84.8103 65.8208 85.0276 62.648C85.2103 59.9125 83.633 57.3995 81.4552 56.8858C80.1464 56.5804 78.8319 56.726 77.5228 56.7329C76.7625 56.7329 76.3855 57.3024 76.3968 58.2533C76.4084 59.635 76.3968 61.0163 76.3968 62.398ZM61.5418 68.0701C62.325 68.0701 63.1079 68.0701 63.8911 68.0701C64.5083 68.0701 65.0626 67.9309 65.0455 66.9663C65.0284 66.0707 64.5141 65.9664 63.9311 65.9664C62.8622 65.9733 61.7933 65.9457 60.7303 65.9664C59.8786 65.9874 60.1014 65.2375 60.1014 64.6959C60.1014 64.1474 59.8845 63.3979 60.7361 63.4254C61.5877 63.4533 62.4448 63.4254 63.2964 63.4254C63.874 63.4323 64.314 63.1617 64.3311 62.4259C64.354 61.6138 63.8965 61.3148 63.2738 61.3148C62.4906 61.3148 61.702 61.2525 60.9246 61.329C60.1359 61.4054 60.0788 60.9055 60.0788 60.1625C60.0788 59.3713 60.1243 58.8228 60.9705 58.8993C61.8563 58.9753 62.7479 58.9268 63.6396 58.9062C64.251 58.892 64.8228 58.7047 64.8111 57.7813C64.7998 56.8441 64.2055 56.7054 63.6054 56.6985C62.2162 56.6775 60.8274 56.6985 59.4386 56.6912C58.587 56.6912 58.2267 57.2191 58.2267 58.2258C58.2384 61.0374 58.2325 63.8489 58.2267 66.6536C58.2267 67.6324 58.6096 68.077 59.4099 68.049C60.1185 68.0284 60.8333 68.049 61.5477 68.049L61.5418 68.0701ZM45.5667 68.1186C46.3041 68.2088 47.2299 67.9868 48.0699 67.3133C48.6245 66.8688 49.0587 66.3065 48.6588 65.5012C48.2358 64.6542 47.6586 64.9321 47.104 65.4041C46.3153 66.0776 45.4695 66.383 44.492 66.0634C43.2975 65.6747 42.566 64.7586 42.3772 63.3073C42.1715 61.7039 42.3029 60.1693 43.5548 59.163C44.5608 58.3577 46.0409 58.4268 47.0585 59.3296C47.5844 59.7948 48.1099 60.0516 48.5215 59.288C48.9674 58.4616 48.476 57.92 47.9502 57.4759C46.3041 56.0736 43.9719 56.0873 42.4401 57.4965C40.7882 59.0239 40.148 61.8981 40.8741 64.5434C41.5201 66.9036 43.0231 68.1049 45.5722 68.1049L45.5667 68.1186Z" fill="#77C7C1"/>
<path d="M55.6022 1C70.7404 1 85.8842 1 101.022 1C103.334 1 103.977 1.81285 103.977 4.6974C103.977 29.5865 103.971 54.4756 104 79.3646C104 80.6378 103.784 81.0481 102.704 80.9903C100.497 80.8754 100.491 80.9618 100.491 78.2355C100.491 54.4685 100.491 30.7015 100.491 6.93454C100.491 4.77652 100.334 4.58231 98.553 4.58231C69.8352 4.58231 41.1235 4.58231 12.406 4.58231C10.6138 4.58231 10.4795 4.74057 10.4795 6.94174C10.4795 31.1115 10.4737 55.2812 10.5028 79.458C10.5028 80.7028 10.2343 81.0334 9.24766 80.9974C7 80.9111 7 80.976 7 78.1634C7 53.6772 7 29.1909 7 4.70461C7 1.81285 7.64218 1.00719 9.95991 1.00719C25.174 1.00719 40.3882 1.00719 55.6022 1.00719V1Z" fill="#FDCB58"/>
<path d="M55.598 4C70.1119 4 84.6312 4 99.1452 4C101.362 4 101.978 4.78237 101.978 7.55875C101.978 31.5145 101.972 55.4703 102 79.4259C102 80.6514 101.793 81.0463 100.757 80.9906C98.6416 80.8801 98.6359 80.9632 98.6359 78.3392C98.6359 55.4634 98.6359 32.5877 98.6359 9.71199C98.6359 7.63491 98.4848 7.44797 96.7776 7.44797C69.2441 7.44797 41.7163 7.44797 14.1831 7.44797C12.4647 7.44797 12.336 7.60029 12.336 9.71893C12.336 32.9823 12.3304 56.2456 12.3584 79.5159C12.3584 80.7139 12.1009 81.0322 11.155 80.9975C9 80.9144 9 80.9769 9 78.2698C9 54.7019 9 31.1337 9 7.56568C9 4.78237 9.61569 4.00692 11.8379 4.00692C26.4245 4.00692 41.0113 4.00692 55.598 4.00692V4Z" fill="#FDCB58"/>
<path d="M55.4543 81.8643C71.738 81.8643 88.0218 81.8643 104.306 81.8643C107.146 81.8643 108.221 83.1833 108.221 86.6614C108.221 88.4431 107.472 89.3342 105.975 89.3342C94.4635 89.3342 82.9579 89.348 71.4465 89.3342C67.2055 89.3273 62.9703 89.1882 58.7294 89.2024C47.2238 89.223 35.7178 89.3063 24.2181 89.3411C17.3765 89.3617 10.5348 89.3273 3.6932 89.369C2.79584 89.369 2.49291 89.0632 2.59007 87.9942C2.65866 87.2236 2.59007 86.4389 2.60722 85.6615C2.65866 83.5372 3.88181 82.0167 5.64222 81.8849C5.99662 81.857 6.3567 81.8711 6.71107 81.8711C22.9606 81.8711 39.2102 81.8711 55.4543 81.8711V81.8643Z" fill="#FDCB58"/>
<path d="M55.5581 80C72.0501 80 88.5422 80 105.035 80C107.912 80 109 81.9333 109 87.0314C109 89.6429 108.241 90.949 106.725 90.949C95.0663 90.949 83.4136 90.9692 71.7549 90.949C67.4597 90.9389 63.1703 90.735 58.8751 90.7557C47.2223 90.786 35.5692 90.9081 23.9223 90.9591C16.9931 90.9893 10.064 90.9389 3.13482 91C2.22598 91 1.91918 90.5518 2.01759 88.9849C2.08705 87.8555 2.01759 86.7053 2.03495 85.5658C2.08705 82.4521 3.32585 80.2235 5.10878 80.0302C5.46771 79.9893 5.8324 80.0101 6.1913 80.0101C22.6488 80.0101 39.1062 80.0101 55.5581 80.0101V80Z" fill="#FDCB58"/>
<path d="M59.0061 92C61.5703 92 64.1286 92 66.6869 92C67.0534 92 67.1697 92.2982 67.2974 92.6401C71.8616 104.665 76.4321 116.683 80.9964 128.701C81.0079 128.738 80.9905 128.789 80.9671 129C80.0371 129 79.0775 128.985 78.1182 129C77.6006 129.014 77.4729 128.491 77.2692 128.091C72.2163 118.261 67.1752 108.424 62.1283 98.5873C61.2271 96.8349 60.326 95.0829 59.4363 93.3233C59.2501 92.9599 58.9539 92.6401 59.0061 92Z" fill="#FDCB58"/>
<path d="M62.0061 92C64.5703 92 67.1286 92 69.6869 92C70.0534 92 70.1697 92.2982 70.2974 92.6401C74.8616 104.665 79.4321 116.683 83.9964 128.701C84.0079 128.738 83.9905 128.789 83.9671 129C83.0371 129 82.0775 128.985 81.1182 129C80.6006 129.014 80.4729 128.491 80.2692 128.091C75.2163 118.261 70.1752 108.424 65.1283 98.5873C64.2271 96.8349 63.326 95.0829 62.4363 93.3233C62.2501 92.9599 61.9539 92.6401 62.0061 92Z" fill="#FDCB58"/>
<path d="M51.9939 92.0225C49.9335 95.9049 48.0414 99.4829 46.1432 103.053C41.7764 111.269 37.3914 119.469 33.0606 127.721C32.55 128.701 32.0214 129.107 31.0903 128.976C30.4296 128.882 29.7448 128.962 29 128.962C29.1742 127.866 29.6367 126.988 29.9971 126.081C34.328 115.057 38.6887 104.055 43.0076 93.0238C43.314 92.2475 43.6624 91.9862 44.3593 92.0006C46.8159 92.0513 49.2729 92.0225 52 92.0225H51.9939Z" fill="#FDCB58"/>
<path d="M49.9939 92.0225C47.9335 95.9049 46.0414 99.4829 44.1432 103.053C39.7764 111.269 35.3914 119.469 31.0606 127.721C30.55 128.701 30.0214 129.107 29.0903 128.976C28.4296 128.882 27.7448 128.962 27 128.962C27.1742 127.866 27.6367 126.988 27.9971 126.081C32.328 115.057 36.6887 104.055 41.0076 93.0238C41.314 92.2475 41.6624 91.9862 42.3593 92.0006C44.8159 92.0513 47.2729 92.0225 50 92.0225H49.9939Z" fill="#FDCB58"/>
<path d="M55.5187 122.957C52.5873 122.957 52.6603 122.957 52.474 119.684C52.0473 112.383 51.5276 105.082 51.0813 97.7801C50.9816 96.1588 50.8081 94.5962 51.741 93.0115C52.5937 91.5602 53.44 90.7604 54.999 91.1012C55.1186 91.1232 55.2522 91.0861 55.3719 91.1012C56.3247 91.2638 57.524 90.5606 58.19 91.5011C59.1895 92.908 60.1423 94.3446 59.9823 96.4474C59.4092 103.83 58.9897 111.228 58.5234 118.625C58.4632 119.588 58.4102 120.558 58.4233 121.527C58.4433 122.646 58.0369 123.127 57.0111 122.971C56.5245 122.898 56.0184 122.957 55.5187 122.957Z" fill="#FDCB58"/>
<path d="M83.7018 75.6307C86.0164 75.6307 88.3314 75.6513 90.6461 75.6166C91.3205 75.6028 91.5778 75.8249 91.5891 76.7066C91.6236 79.5113 91.652 79.5113 89.2973 79.5113C85.1648 79.5113 81.0381 79.4765 76.9056 79.5392C75.9968 79.553 75.6598 79.3172 75.694 78.1227C75.7624 75.6376 75.7053 75.6376 77.723 75.6376C79.7406 75.6376 81.7125 75.6376 83.7072 75.6376L83.7018 75.6307Z" fill="#5880F1"/>
<path d="M25.2648 77.616C27.0824 77.616 28.9 77.6714 30.7118 77.5954C31.7578 77.5464 31.5234 78.3659 31.5177 79.0462C31.512 79.7128 31.7806 80.5319 30.7233 80.5181C27.0195 80.4623 23.3158 80.4554 19.6177 80.5181C18.5603 80.5388 18.8175 79.7266 18.8233 79.06C18.8233 78.4075 18.5432 77.5537 19.6063 77.5954C21.4925 77.6714 23.3786 77.616 25.2648 77.616Z" fill="white"/>
<path d="M55.0659 26.6102C56.3179 29.9425 57.4435 32.9694 58.5925 35.9824C58.8327 36.6142 58.8327 36.8988 58.1467 36.8919C55.9747 36.8572 53.8027 36.8849 51.631 36.8711C51.3221 36.8711 50.7907 37.0308 51.1106 36.2393C52.391 33.1152 53.6713 29.9912 55.0601 26.6033L55.0659 26.6102Z" fill="#77C7C1"/>
<path d="M72.2451 62.3091C72.2451 61.7208 72.1427 61.101 72.2625 60.5284C72.6894 58.4929 70.8938 55.265 73.2196 54.6127C76.52 53.6742 80.453 53.6427 83.6857 55.7421C86.5756 57.6025 87.7211 61.7051 86.5408 65.4259C85.4127 68.9568 82.7962 70.8487 78.8458 70.9923C74.445 71.1405 72.2451 69.1476 72.2451 65.0127C72.2451 64.1223 72.2451 63.2319 72.2451 62.3416V62.3091Z" fill="#77C7C1"/>
<path d="M34.2451 64.3091C34.2451 63.7208 34.1427 63.101 34.2625 62.5284C34.6894 60.4929 32.8938 57.265 35.2196 56.6127C38.52 55.6742 42.453 55.6427 45.6857 57.7421C48.5756 59.6025 49.7211 63.7051 48.5408 67.4259C47.4127 70.9568 44.7962 72.8487 40.8458 72.9923C36.445 73.1405 34.2451 71.1476 34.2451 67.0127C34.2451 66.1223 34.2451 65.2319 34.2451 64.3416V64.3091Z" fill="#77C7C1"/>
<path d="M22.2451 62.3091C22.2451 61.7208 22.1427 61.101 22.2625 60.5284C22.6894 58.4929 20.8938 55.265 23.2196 54.6127C26.52 53.6742 30.453 53.6427 33.6857 55.7421C36.5756 57.6025 37.7211 61.7051 36.5408 65.4259C35.4127 68.9568 32.7962 70.8487 28.8458 70.9923C24.445 71.1405 22.2451 69.1476 22.2451 65.0127C22.2451 64.1223 22.2451 63.2319 22.2451 62.3416V62.3091Z" fill="#77C7C1"/>
<path d="M55.2451 61.3091C55.2451 60.7208 55.1427 60.101 55.2625 59.5284C55.6894 57.4929 53.8938 54.265 56.2196 53.6127C59.52 52.6742 63.453 52.6427 66.6857 54.7421C69.5756 56.6025 70.7211 60.7051 69.5408 64.4259C68.4127 67.9568 65.7962 69.8487 61.8458 69.9923C57.445 70.1405 55.2451 68.1476 55.2451 64.0127C55.2451 63.1223 55.2451 62.2319 55.2451 61.3416V61.3091Z" fill="#77C7C1"/>
<path d="M37.6209 35.5509C37.6209 34.1666 37.3616 32.7082 37.665 31.361C38.7464 26.5715 34.1977 18.9764 40.0898 17.4416C48.4506 15.2333 58.4142 15.1592 66.6039 20.0991C73.9248 24.4765 76.8267 34.1296 73.8366 42.8844C70.9788 51.1924 64.3503 55.644 54.3427 55.9819C43.194 56.3307 37.6209 51.6415 37.6209 41.9122C37.6209 39.8172 37.6209 37.7222 37.6209 35.6272V35.5509Z" fill="#77C7C1"/>
</g>
<path d="M40.0786 91.6401H70.7355" stroke="#FFC125" stroke-width="3.42857" stroke-linecap="round"/>
<path d="M37.3338 54.0964L41.3408 58.8333L40.263 60.1058L36.256 55.3701L37.3338 54.0964Z" fill="#5880F1"/>
<path d="M41.2221 58.7087L45.2276 63.4456L44.1502 64.7197L40.1456 59.9829L41.2221 58.7087Z" fill="#FFD983"/>
<path d="M41.103 51.3206L45.1099 56.0574L44.0322 57.3311L40.0252 52.5943L41.103 51.3206Z" fill="#F1CB57"/>
<path d="M44.296 55.0847L48.3029 59.8216L47.2255 61.0957L43.2195 56.3589L44.296 55.0847ZM48.8599 42.1672L52.8655 46.9041L51.7881 48.1782L47.7822 43.4414L48.8599 42.1672Z" fill="#5880F1"/>
<path d="M52.0358 45.9268L56.0428 50.662L54.965 51.9361L50.958 47.2005L52.0358 45.9268Z" fill="#FFAC33"/>
<path d="M51.2728 37.7107L55.2798 42.4474L54.2033 43.7215L50.1964 38.9846L51.2728 37.7107Z" fill="#EBB614"/>
<path d="M55.1231 42.2769L59.13 47.0137L58.0526 48.2879L54.0456 43.551L55.1231 42.2769Z" fill="#FFD983"/>
<path d="M54.3614 34.061L58.3684 38.7979L57.2906 40.0704L53.2836 35.3349L54.3614 34.061Z" fill="#F1CB57"/>
<path d="M58.2093 38.6289L62.2162 43.3645L61.1388 44.6382L57.1329 39.9015L58.2093 38.6289ZM62.2535 24.7192L66.2605 29.4561L65.1831 30.7287L61.1761 25.9932L62.2535 24.7192Z" fill="#5880F1"/>
<path d="M66.1229 29.2805L70.1299 34.016L69.0521 35.2899L65.0452 30.5531L66.1229 29.2805Z" fill="#FFAC33"/>
<path d="M65.3209 20.9814L69.3279 25.7183L68.2501 26.9922L64.2431 22.2554L65.3209 20.9814Z" fill="#5880F1"/>
<path d="M69.2369 25.594L73.2439 30.3295L72.1664 31.6034L68.1595 26.8679L69.2369 25.594Z" fill="#FFD983"/>
<path d="M62.9005 18.9916C59.9584 22.4697 59.8639 27.473 60.1031 32.5259C60.6882 32.5645 61.2733 32.6101 61.857 32.6556C62.3124 32.6915 62.7616 32.726 63.2102 32.7577C62.9789 28.2224 62.9779 24.0639 65.0852 21.5726C65.9337 20.6023 66.1999 19.2911 65.607 18.5831C64.9822 17.8377 63.8066 17.8971 62.9005 18.9916Z" fill="white"/>
<path d="M49.148 53.2742L48.9694 49.6027C48.9393 48.9887 48.9017 48.3622 48.8832 47.7643C48.5376 47.3558 46.004 47.2826 45.7857 47.5407C45.8007 48.1482 45.8404 48.761 45.8685 49.3722C45.9013 50.065 46.0156 52.5121 46.0426 53.0436C46.1056 54.2996 46.1545 55.5365 46.1429 56.7094C46.4454 57.067 48.9113 57.3125 49.2312 56.9331C49.2486 55.7294 49.2055 54.5026 49.148 53.2742Z" fill="#E7E7E7"/>
<path d="M49.2291 56.9278L46.1364 56.7041C46.106 59.7531 45.6882 62.4251 44.1666 64.2238C43.5631 64.9373 43.5631 66.0925 44.1666 66.806C44.4681 67.162 44.8639 67.3415 45.2584 67.3415C45.6529 67.3415 46.0488 67.1636 46.3499 66.806C49.1788 63.463 49.2302 56.9043 49.2291 56.9278Z" fill="white"/>
<path d="M63.3946 36.4269C62.8095 36.3883 62.2234 36.3427 61.6397 36.2972C61.1857 36.2613 60.7351 36.2268 60.2879 36.1951C60.5192 40.7289 60.5202 44.889 58.4115 47.3802C56.3055 49.8702 52.7923 49.8714 48.9616 49.5984C48.5109 49.5664 46.4409 49.4051 45.8606 49.3662C41.5796 49.0819 37.3414 49.1923 34.3957 52.6749C33.7932 53.3868 33.7932 54.542 34.3969 55.2555C34.698 55.6118 35.0938 55.791 35.4886 55.791C35.8831 55.791 36.279 55.613 36.5801 55.2555C38.6874 52.7659 42.2016 52.7631 46.0348 53.0365C46.4844 53.068 48.5578 53.2294 49.1402 53.2683C53.4157 53.551 57.6505 53.4406 60.5948 49.9612C63.5383 46.4831 63.6341 41.4797 63.3946 36.4269Z" fill="white"/>
<path d="M63.4015 36.4371C63.369 35.7456 63.2321 33.2944 63.2054 32.7658C63.1739 32.1447 63.1483 31.5319 63.1305 30.9274C62.7384 30.8984 60.679 30.7438 60.0333 30.7024C60.0484 31.3097 60.0706 31.9211 60.0987 32.5325C60.1312 33.224 60.2677 35.6752 60.2947 36.2052C60.359 37.4668 60.4008 38.6951 60.3891 39.8711C60.7782 39.9001 62.8342 40.0533 63.4774 40.0946C63.4949 38.8911 63.46 37.6669 63.4015 36.4371Z" fill="#E7E7E7"/>
<path d="M75.3173 30.0568C74.827 29.455 73.7003 29.2273 72.6423 30.544C70.535 33.0353 67.0184 33.0366 63.1808 32.762C62.7325 32.7302 60.6591 32.5674 60.074 32.5287C55.8009 32.2458 51.5674 32.359 48.6252 35.8371C46.0392 38.8942 45.654 43.1302 45.7614 47.541C46.407 47.5827 48.4689 47.7372 48.8589 47.7647C48.7443 43.9622 48.9906 40.5686 50.8099 38.418C52.9172 35.9268 56.4349 35.9268 60.2714 36.2001C60.7186 36.2318 62.7931 36.3933 63.3782 36.432C67.6524 36.7149 71.8848 36.6031 74.827 33.125C75.8613 31.9256 75.8076 30.6586 75.3173 30.0568Z" fill="white"/>
</g>
<defs>
<clipPath id="clip0_75_14">
<rect width="109.489" height="129.434" fill="white" transform="translate(0.66423)"/>
</clipPath>
</defs>
</svg>
